
<svg
  width="189"
  height="159"
  viewBox="0 0 189 159"
  version="1.1"
  xmlns="http://www.w3.org/2000/svg"
  class="h-12 w-auto"
>
  <g transform="matrix(1,0,0,1,-83.7837,-119.421)">
    <g transform="matrix(0.964536,0,0,0.964536,-221.474,30.2761)">
      <path
        d="M415.127,256.324C414.061,255.894 413.711,255.286 413.711,253.86C413.711,252.617 414.144,251.704 416.118,248.791C420.12,242.881 422.603,236.102 422.911,230.244C423.074,227.142 422.742,226.186 421.224,225.374C420.029,224.736 419.188,224.97 416.86,226.588C410.897,230.731 405.859,232.757 399.216,233.684C391.329,234.783 383.297,233.209 376.604,229.252L375.246,228.45L373.547,229.561C371.199,231.096 365.948,233.413 363.078,234.18C350.561,237.524 337.671,234.418 328.518,225.854C321.661,219.436 317.743,211.335 316.664,201.346C315.918,194.425 317.52,184.999 320.308,179.907L320.95,178.734L320.187,176.944C318.629,173.29 318.424,172.126 318.427,166.914C318.429,162.423 318.476,161.967 319.163,159.731C319.96,157.14 321.311,154.053 322.455,152.213C324.152,149.485 327.569,145.828 329.675,144.486C330.148,144.185 330.408,143.605 330.783,142.016C331.512,138.932 332.486,136.406 334.27,132.975C338.82,124.221 346.137,117.289 354.925,113.405C357.277,112.366 362.208,110.84 363.216,110.84C363.473,110.84 365.102,109.773 366.836,108.469C371.22,105.172 374.834,102.984 379.81,100.616C396.501,92.673 416.91,90.399 436.854,94.259C444.905,95.817 452.954,98.921 458.497,102.605C460.334,103.826 461.105,104.197 461.819,104.202C463.102,104.213 466.051,104.811 468.595,105.581C474.709,107.432 480.89,111.762 485.405,117.358C488.157,120.768 490.664,125.937 491.726,130.392L492.195,132.36L495.303,135.188C503.698,142.828 508.936,152.142 511.141,163.348C511.827,166.835 511.962,175.12 511.4,179.213C510.323,187.054 507.479,194.306 503.011,200.608C501.1,203.304 498.22,206.527 496.239,208.187C495.177,209.077 494.698,209.731 494.133,211.061C491.362,217.58 484.319,224.495 476.969,227.912C474.167,229.215 470.133,230.522 467.002,231.141C464.41,231.654 463.401,231.718 458.098,231.707C452.959,231.697 451.737,231.619 449.412,231.153C447.924,230.854 446.539,230.551 446.335,230.478C446.072,230.385 445.481,231.241 444.328,233.386C439.161,242.988 431.006,250.962 422.276,254.949C420.302,255.85 417.435,256.685 416.369,256.669C416.15,256.665 415.591,256.51 415.127,256.324Z"
      />
    </g>
    <g transform="matrix(0.964536,0,0,0.964536,-221.474,30.2761)">
      <path
        d="M431.485,236.788C434.108,233.244 436.906,227.478 436.12,227.236C435.951,227.184 434.786,226.483 433.533,225.68C432.28,224.876 431.225,224.219 431.188,224.219C431.151,224.219 431.106,226.073 431.088,228.338C431.062,231.613 430.932,232.987 430.452,235.04C429.686,238.324 429.567,238.975 429.732,238.975C429.806,238.975 430.595,237.991 431.485,236.788Z"
      />
    </g>
    <g transform="matrix(0.964536,0,0,0.964536,-221.474,30.2761)">
      <path
        d="M463.063,224.694C468.166,224.049 472.771,222.531 476.63,220.221C478.658,219.007 482.089,216.159 481.887,215.857C481.816,215.751 480.172,216.036 478.234,216.491C466.606,219.22 459.16,219.92 444.783,219.635C438.735,219.516 436.335,219.546 436.203,219.742C436.014,220.026 437.494,220.73 440.976,222.012C444.079,223.154 449.776,224.435 453.314,224.785C455.408,224.993 461.119,224.939 463.063,224.693L463.063,224.694Z"
      />
    </g>
    <g transform="matrix(0.964536,0,0,0.964536,-221.474,30.2761)">
      <path
        d="M376.232,222.868C376.498,222.572 376.449,222.281 375.975,221.348C374.685,218.809 374.649,218.197 374.644,198.72C374.639,178.31 374.758,179.534 372.809,179.805C372.281,179.878 370.234,180.118 368.261,180.338C366.151,180.574 364.149,180.945 363.402,181.238C360.905,182.22 358.592,185.456 356.536,190.846C355.958,192.36 355.42,193.765 355.34,193.968C355.255,194.181 354.83,193.457 354.331,192.246C351.911,186.384 348.935,182.535 345.296,180.565C343.976,179.85 340.107,178.314 336.235,176.967L334.112,176.229L333.603,176.798C332.87,177.618 331.199,180.985 330.4,183.25C327.866,190.437 327.758,199.218 330.122,205.913C332.802,213.505 337.975,219.33 344.617,222.237C345.518,222.631 346.437,222.889 346.661,222.81C347.107,222.651 347.082,222.2 346.325,216.84C345.593,211.656 345.486,195.443 346.183,195.443C346.291,195.443 347.167,197.02 348.131,198.948C352.483,207.657 353.986,210.591 354.247,210.889C354.61,211.303 356.047,211.168 356.34,210.691C356.465,210.489 358.193,207.168 360.181,203.313C362.168,199.458 363.842,196.258 363.901,196.202C364.31,195.81 364.422,197.611 364.543,206.469C364.675,216.107 364.702,216.521 365.276,217.843C366.758,221.252 369.929,223.206 374.009,223.226C375.372,223.233 375.996,223.132 376.232,222.868Z"
      />
    </g>
    <g transform="matrix(0.964536,0,0,0.964536,-221.474,30.2761)">
      <path
        d="M380.496,126.682C383.402,123.933 387.581,121.696 391.783,120.641C393.647,120.172 394.529,120.111 398.935,120.143C406.201,120.195 407.895,119.73 413.917,116.037C419.728,112.474 423.162,111.172 427.398,110.926C429.117,110.827 430.299,110.898 431.591,111.18C435.13,111.953 436.654,113.091 438.131,116.06C439.28,118.372 439.921,118.845 441.859,118.813C444.067,118.776 446.287,117.294 446.933,115.427C447.895,112.642 445.56,109.319 441.148,107.195C435.225,104.344 427.093,103.91 420.028,106.069C414.22,107.844 406.316,112.716 399.765,118.559C398.826,119.397 398.684,119.455 398.614,119.029C398.396,117.693 401.748,111.13 404.167,108.156C406.018,105.881 405.983,105.815 403.013,106.002C395.092,106.501 386.153,111.084 381.838,116.86C380.23,119.012 379.289,120.88 378.753,122.981C378.191,125.185 378.254,128.056 378.863,128.056C378.962,128.056 379.697,127.438 380.496,126.682Z"
      />
    </g>
    <g transform="matrix(0.964536,0,0,0.964536,-221.474,30.2761)">
      <path
        d="M417.171,141.59C416.824,141.387 416.831,141.065 417.231,138.896C417.961,134.936 419.902,130.945 421.685,129.735C422.607,129.11 423.836,128.823 424.549,129.068L425.15,129.273L425.007,140.714L422.083,141.134C420.475,141.364 418.801,141.613 418.362,141.687C417.924,141.761 417.388,141.716 417.171,141.59Z"
      />
    </g>
    <g transform="matrix(0.964536,0,0,0.964536,-221.474,30.2761)">
      <path
        d="M455.107,170.717C456.37,170.229 456.973,169.711 457.595,168.584C458.557,166.84 458.104,164.632 456.532,163.408C454.405,161.752 451.046,162.575 449.831,165.051C448.764,167.225 449.554,169.535 451.71,170.542C453.107,171.194 453.783,171.229 455.107,170.717Z"
      />
    </g>
    <g transform="matrix(0.964536,0,0,0.964536,-221.474,30.2761)">
      <path
        d="M413.331,218.156C416.278,217.243 418.344,215.339 419.448,212.519C419.845,211.504 419.947,210.166 420.073,204.317L420.223,197.327L422.569,196.799C423.86,196.509 425.024,196.113 425.157,195.919C425.564,195.323 425.467,189.402 425.044,189.077C424.773,188.87 424.164,188.899 422.618,189.195C420.894,189.525 420.513,189.535 420.313,189.258C420.181,189.076 420.107,187.764 420.148,186.344C420.213,184.089 420.318,183.582 420.974,182.347C421.81,180.77 423.109,179.881 425.346,179.353C427.089,178.942 427.258,178.528 427.263,174.647C427.268,170.25 427.388,170.369 423.503,170.897C417.973,171.648 415.11,172.964 413.388,175.547C411.865,177.831 411.851,178.018 411.845,196.417C411.842,206.227 411.73,213.942 411.578,214.873C410.929,218.828 410.934,218.562 411.501,218.562C411.787,218.562 412.611,218.379 413.331,218.156Z"
      />
    </g>
  </g>
</svg>